<mxfile host="Electron" modified="2024-02-09T11:10:52.717Z" agent="Mozilla/5.0 (Windows NT 10.0; Win64; x64) AppleWebKit/537.36 (KHTML, like Gecko) draw.io/23.0.2 Chrome/120.0.6099.109 Electron/28.1.0 Safari/537.36" etag="cKo4_QZQ9slZOKmtur__" version="23.0.2" type="device">
  <diagram id="yPxyJZ8AM_hMuL3Unpa9" name="complex gitflow">
    <mxGraphModel dx="1687" dy="190" grid="1" gridSize="10" guides="1" tooltips="1" connect="1" arrows="1" fold="1" page="1" pageScale="1" pageWidth="1100" pageHeight="850" math="0" shadow="0">
      <root>
        <mxCell id="0" />
        <mxCell id="1" parent="0" />
        <mxCell id="fy5Q7DqNXk6SzxezdRcU-188" value="" style="rounded=0;whiteSpace=wrap;html=1;fillColor=#fff2cc;strokeColor=#d6b656;" vertex="1" parent="1">
          <mxGeometry x="750.25" y="850" width="175" height="870" as="geometry" />
        </mxCell>
        <mxCell id="fy5Q7DqNXk6SzxezdRcU-187" value="" style="rounded=0;whiteSpace=wrap;html=1;fillColor=#F0FEFF;" vertex="1" parent="1">
          <mxGeometry y="1340" width="750.25" height="380" as="geometry" />
        </mxCell>
        <mxCell id="fy5Q7DqNXk6SzxezdRcU-186" value="" style="rounded=0;whiteSpace=wrap;html=1;fillColor=#F2FFF3;" vertex="1" parent="1">
          <mxGeometry y="850" width="750.25" height="490" as="geometry" />
        </mxCell>
        <mxCell id="fy5Q7DqNXk6SzxezdRcU-67" value="" style="verticalLabelPosition=bottom;verticalAlign=top;html=1;strokeWidth=4;shape=mxgraph.flowchart.on-page_reference;strokeColor=#005700;fillColor=#008a00;comic=0;fontColor=#ffffff;" vertex="1" parent="1">
          <mxGeometry x="46.25" y="955" width="40" height="40" as="geometry" />
        </mxCell>
        <mxCell id="fy5Q7DqNXk6SzxezdRcU-68" value="LECTURA DE&lt;br&gt;ENTRADAS&lt;br&gt;DIGITALES" style="text;html=1;align=center;verticalAlign=middle;resizable=0;points=[];autosize=1;strokeColor=none;fillColor=none;fontStyle=1" vertex="1" parent="1">
          <mxGeometry x="16.25" y="900" width="100" height="60" as="geometry" />
        </mxCell>
        <mxCell id="fy5Q7DqNXk6SzxezdRcU-69" value="" style="verticalLabelPosition=bottom;verticalAlign=top;html=1;strokeWidth=4;shape=mxgraph.flowchart.on-page_reference;strokeColor=#005700;fillColor=#008a00;comic=0;fontColor=#ffffff;" vertex="1" parent="1">
          <mxGeometry x="206.25" y="955" width="40" height="40" as="geometry" />
        </mxCell>
        <mxCell id="fy5Q7DqNXk6SzxezdRcU-70" value="MEDICIÓN DE&lt;br&gt;CONDUCTIVIDAD" style="text;html=1;align=center;verticalAlign=middle;resizable=0;points=[];autosize=1;strokeColor=none;fillColor=none;fontStyle=1" vertex="1" parent="1">
          <mxGeometry x="166.25" y="915" width="120" height="40" as="geometry" />
        </mxCell>
        <mxCell id="fy5Q7DqNXk6SzxezdRcU-71" style="edgeStyle=orthogonalEdgeStyle;rounded=0;orthogonalLoop=1;jettySize=auto;html=1;entryX=0;entryY=0.5;entryDx=0;entryDy=0;entryPerimeter=0;fontStyle=0;fontSize=11;curved=1;strokeWidth=4;endArrow=none;endFill=0;exitX=1;exitY=0.5;exitDx=0;exitDy=0;exitPerimeter=0;" edge="1" parent="1" source="fy5Q7DqNXk6SzxezdRcU-67" target="fy5Q7DqNXk6SzxezdRcU-69">
          <mxGeometry relative="1" as="geometry">
            <mxPoint x="116.25" y="995" as="sourcePoint" />
          </mxGeometry>
        </mxCell>
        <mxCell id="fy5Q7DqNXk6SzxezdRcU-72" value="" style="verticalLabelPosition=bottom;verticalAlign=top;html=1;strokeWidth=4;shape=mxgraph.flowchart.on-page_reference;strokeColor=#005700;fillColor=#008a00;comic=0;fontColor=#ffffff;" vertex="1" parent="1">
          <mxGeometry x="46.25" y="1050" width="40" height="40" as="geometry" />
        </mxCell>
        <mxCell id="fy5Q7DqNXk6SzxezdRcU-73" value="LECTURA DE&lt;br&gt;ENTRADAS&lt;br&gt;ANALÓGICAS" style="text;html=1;align=center;verticalAlign=middle;resizable=0;points=[];autosize=1;strokeColor=none;fillColor=none;fontStyle=1" vertex="1" parent="1">
          <mxGeometry x="16.25" y="995" width="100" height="60" as="geometry" />
        </mxCell>
        <mxCell id="fy5Q7DqNXk6SzxezdRcU-74" value="MEDICIÓN DE&lt;br&gt;TEMPERATURA" style="text;html=1;align=center;verticalAlign=middle;resizable=0;points=[];autosize=1;strokeColor=none;fillColor=none;fontStyle=1" vertex="1" parent="1">
          <mxGeometry x="171.25" y="1010" width="110" height="40" as="geometry" />
        </mxCell>
        <mxCell id="fy5Q7DqNXk6SzxezdRcU-75" value="" style="verticalLabelPosition=bottom;verticalAlign=top;html=1;strokeWidth=4;shape=mxgraph.flowchart.on-page_reference;strokeColor=#005700;fillColor=#008a00;comic=0;fontColor=#ffffff;" vertex="1" parent="1">
          <mxGeometry x="206.25" y="1050" width="40" height="40" as="geometry" />
        </mxCell>
        <mxCell id="fy5Q7DqNXk6SzxezdRcU-77" style="edgeStyle=orthogonalEdgeStyle;rounded=0;orthogonalLoop=1;jettySize=auto;html=1;entryX=0;entryY=0.5;entryDx=0;entryDy=0;entryPerimeter=0;fontStyle=0;fontSize=11;curved=1;strokeWidth=4;endArrow=none;endFill=0;exitX=1;exitY=0.5;exitDx=0;exitDy=0;exitPerimeter=0;" edge="1" parent="1" source="fy5Q7DqNXk6SzxezdRcU-72" target="fy5Q7DqNXk6SzxezdRcU-75">
          <mxGeometry relative="1" as="geometry">
            <mxPoint x="98.5" y="1120" as="sourcePoint" />
            <mxPoint x="178.5" y="1120" as="targetPoint" />
          </mxGeometry>
        </mxCell>
        <mxCell id="fy5Q7DqNXk6SzxezdRcU-80" value="" style="verticalLabelPosition=bottom;verticalAlign=top;html=1;strokeWidth=4;shape=mxgraph.flowchart.on-page_reference;strokeColor=#005700;fillColor=#008a00;comic=0;fontColor=#ffffff;" vertex="1" parent="1">
          <mxGeometry x="526.25" y="949" width="40" height="40" as="geometry" />
        </mxCell>
        <mxCell id="fy5Q7DqNXk6SzxezdRcU-81" value="INTERRUPCIÓN POR&lt;br&gt;PIN EXTERNO" style="text;html=1;align=center;verticalAlign=middle;resizable=0;points=[];autosize=1;strokeColor=none;fillColor=none;fontStyle=1" vertex="1" parent="1">
          <mxGeometry x="476.25" y="908" width="140" height="40" as="geometry" />
        </mxCell>
        <mxCell id="fy5Q7DqNXk6SzxezdRcU-82" style="edgeStyle=orthogonalEdgeStyle;rounded=0;orthogonalLoop=1;jettySize=auto;html=1;entryX=0;entryY=0.5;entryDx=0;entryDy=0;entryPerimeter=0;curved=1;endArrow=none;endFill=0;strokeWidth=4;" edge="1" parent="1" target="fy5Q7DqNXk6SzxezdRcU-80">
          <mxGeometry relative="1" as="geometry">
            <mxPoint x="86.25" y="975" as="sourcePoint" />
            <Array as="points">
              <mxPoint x="156.25" y="975" />
              <mxPoint x="156.25" y="900" />
              <mxPoint x="446.25" y="900" />
              <mxPoint x="446.25" y="969" />
            </Array>
          </mxGeometry>
        </mxCell>
        <mxCell id="fy5Q7DqNXk6SzxezdRcU-83" value="" style="verticalLabelPosition=bottom;verticalAlign=top;html=1;strokeWidth=4;shape=mxgraph.flowchart.on-page_reference;strokeColor=#005700;fillColor=#008a00;comic=0;fontColor=#ffffff;" vertex="1" parent="1">
          <mxGeometry x="46.25" y="1145" width="40" height="40" as="geometry" />
        </mxCell>
        <mxCell id="fy5Q7DqNXk6SzxezdRcU-84" value="INTERRUPCIONES&lt;br&gt;PERIÓDICAS" style="text;html=1;align=center;verticalAlign=middle;resizable=0;points=[];autosize=1;strokeColor=none;fillColor=none;fontStyle=1" vertex="1" parent="1">
          <mxGeometry y="1105" width="130" height="40" as="geometry" />
        </mxCell>
        <mxCell id="fy5Q7DqNXk6SzxezdRcU-85" value="" style="verticalLabelPosition=bottom;verticalAlign=top;html=1;strokeWidth=4;shape=mxgraph.flowchart.on-page_reference;strokeColor=#005700;fillColor=#008a00;comic=0;fontColor=#ffffff;" vertex="1" parent="1">
          <mxGeometry x="206.25" y="1145" width="40" height="40" as="geometry" />
        </mxCell>
        <mxCell id="fy5Q7DqNXk6SzxezdRcU-86" value="VARIACIÓN&lt;br&gt;FRECUECIAS DE&lt;br&gt;MEDICIÓN" style="text;html=1;align=center;verticalAlign=middle;resizable=0;points=[];autosize=1;strokeColor=none;fillColor=none;fontStyle=1" vertex="1" parent="1">
          <mxGeometry x="166.25" y="1090" width="120" height="60" as="geometry" />
        </mxCell>
        <mxCell id="fy5Q7DqNXk6SzxezdRcU-88" style="edgeStyle=orthogonalEdgeStyle;rounded=0;orthogonalLoop=1;jettySize=auto;html=1;entryX=0;entryY=0.5;entryDx=0;entryDy=0;entryPerimeter=0;fontStyle=0;fontSize=11;curved=1;strokeWidth=4;endArrow=none;endFill=0;exitX=1;exitY=0.5;exitDx=0;exitDy=0;exitPerimeter=0;" edge="1" parent="1" source="fy5Q7DqNXk6SzxezdRcU-83" target="fy5Q7DqNXk6SzxezdRcU-85">
          <mxGeometry relative="1" as="geometry">
            <mxPoint x="96.25" y="1052" as="sourcePoint" />
            <mxPoint x="216.25" y="1052" as="targetPoint" />
          </mxGeometry>
        </mxCell>
        <mxCell id="fy5Q7DqNXk6SzxezdRcU-89" value="" style="verticalLabelPosition=bottom;verticalAlign=top;html=1;strokeWidth=4;shape=mxgraph.flowchart.on-page_reference;strokeColor=#005700;fillColor=#008a00;comic=0;fontColor=#ffffff;" vertex="1" parent="1">
          <mxGeometry x="45" y="1230" width="40" height="40" as="geometry" />
        </mxCell>
        <mxCell id="fy5Q7DqNXk6SzxezdRcU-91" value="ESCRITURA DE&lt;br&gt;MEMORIA" style="text;html=1;align=center;verticalAlign=middle;resizable=0;points=[];autosize=1;strokeColor=none;fillColor=none;fontStyle=1" vertex="1" parent="1">
          <mxGeometry x="10" y="1190" width="110" height="40" as="geometry" />
        </mxCell>
        <mxCell id="fy5Q7DqNXk6SzxezdRcU-92" value="" style="verticalLabelPosition=bottom;verticalAlign=top;html=1;strokeWidth=4;shape=mxgraph.flowchart.on-page_reference;strokeColor=#005700;fillColor=#008a00;comic=0;fontColor=#ffffff;" vertex="1" parent="1">
          <mxGeometry x="205" y="1230" width="40" height="40" as="geometry" />
        </mxCell>
        <mxCell id="fy5Q7DqNXk6SzxezdRcU-93" value="ARREGLO&lt;br&gt;BIDIRECCIONAL" style="text;html=1;align=center;verticalAlign=middle;resizable=0;points=[];autosize=1;strokeColor=none;fillColor=none;fontStyle=1" vertex="1" parent="1">
          <mxGeometry x="165" y="1190" width="120" height="40" as="geometry" />
        </mxCell>
        <mxCell id="fy5Q7DqNXk6SzxezdRcU-94" style="edgeStyle=orthogonalEdgeStyle;rounded=0;orthogonalLoop=1;jettySize=auto;html=1;entryX=0;entryY=0.5;entryDx=0;entryDy=0;entryPerimeter=0;fontStyle=0;fontSize=11;curved=1;strokeWidth=4;endArrow=none;endFill=0;exitX=1;exitY=0.5;exitDx=0;exitDy=0;exitPerimeter=0;" edge="1" parent="1" source="fy5Q7DqNXk6SzxezdRcU-89" target="fy5Q7DqNXk6SzxezdRcU-92">
          <mxGeometry relative="1" as="geometry">
            <mxPoint x="95" y="1143" as="sourcePoint" />
            <mxPoint x="215" y="1143" as="targetPoint" />
          </mxGeometry>
        </mxCell>
        <mxCell id="fy5Q7DqNXk6SzxezdRcU-95" value="" style="verticalLabelPosition=bottom;verticalAlign=top;html=1;strokeWidth=4;shape=mxgraph.flowchart.on-page_reference;strokeColor=#005700;fillColor=#008a00;comic=0;fontColor=#ffffff;" vertex="1" parent="1">
          <mxGeometry x="366.13" y="1230" width="40" height="40" as="geometry" />
        </mxCell>
        <mxCell id="fy5Q7DqNXk6SzxezdRcU-96" value="RECEPCIÓN&lt;br&gt;UART" style="text;html=1;align=center;verticalAlign=middle;resizable=0;points=[];autosize=1;strokeColor=none;fillColor=none;fontStyle=1" vertex="1" parent="1">
          <mxGeometry x="343.5" y="1190" width="90" height="40" as="geometry" />
        </mxCell>
        <mxCell id="fy5Q7DqNXk6SzxezdRcU-97" value="" style="verticalLabelPosition=bottom;verticalAlign=top;html=1;strokeWidth=4;shape=mxgraph.flowchart.on-page_reference;strokeColor=#005700;fillColor=#008a00;comic=0;fontColor=#ffffff;" vertex="1" parent="1">
          <mxGeometry x="524.75" y="1229" width="40" height="40" as="geometry" />
        </mxCell>
        <mxCell id="fy5Q7DqNXk6SzxezdRcU-98" value="CONFIGURACIÓN&lt;br&gt;DE PARÁMETROS" style="text;html=1;align=center;verticalAlign=middle;resizable=0;points=[];autosize=1;strokeColor=none;fillColor=none;fontStyle=1" vertex="1" parent="1">
          <mxGeometry x="479.75" y="1189" width="130" height="40" as="geometry" />
        </mxCell>
        <mxCell id="fy5Q7DqNXk6SzxezdRcU-99" style="edgeStyle=orthogonalEdgeStyle;rounded=0;orthogonalLoop=1;jettySize=auto;html=1;entryX=0;entryY=0.5;entryDx=0;entryDy=0;entryPerimeter=0;fontStyle=0;fontSize=11;curved=1;strokeWidth=4;endArrow=none;endFill=0;exitX=1;exitY=0.5;exitDx=0;exitDy=0;exitPerimeter=0;" edge="1" parent="1" source="fy5Q7DqNXk6SzxezdRcU-95" target="fy5Q7DqNXk6SzxezdRcU-97">
          <mxGeometry relative="1" as="geometry">
            <mxPoint x="95" y="1230" as="sourcePoint" />
            <mxPoint x="215" y="1230" as="targetPoint" />
          </mxGeometry>
        </mxCell>
        <mxCell id="fy5Q7DqNXk6SzxezdRcU-100" style="edgeStyle=orthogonalEdgeStyle;rounded=0;orthogonalLoop=1;jettySize=auto;html=1;entryX=0;entryY=0.5;entryDx=0;entryDy=0;entryPerimeter=0;fontStyle=0;fontSize=11;curved=1;strokeWidth=4;endArrow=none;endFill=0;exitX=1;exitY=0.5;exitDx=0;exitDy=0;exitPerimeter=0;" edge="1" parent="1" source="fy5Q7DqNXk6SzxezdRcU-89" target="fy5Q7DqNXk6SzxezdRcU-97">
          <mxGeometry relative="1" as="geometry">
            <mxPoint x="95" y="1260" as="sourcePoint" />
            <mxPoint x="215" y="1260" as="targetPoint" />
            <Array as="points">
              <mxPoint x="176.25" y="1250" />
              <mxPoint x="176.25" y="1310" />
              <mxPoint x="456.25" y="1310" />
              <mxPoint x="456.25" y="1249" />
            </Array>
          </mxGeometry>
        </mxCell>
        <mxCell id="fy5Q7DqNXk6SzxezdRcU-101" value="" style="verticalLabelPosition=bottom;verticalAlign=top;html=1;strokeWidth=4;shape=mxgraph.flowchart.on-page_reference;strokeColor=#005700;fillColor=#008a00;comic=0;fontColor=#ffffff;" vertex="1" parent="1">
          <mxGeometry x="368.5" y="1100" width="40" height="40" as="geometry" />
        </mxCell>
        <mxCell id="fy5Q7DqNXk6SzxezdRcU-102" value="MEMORIA&amp;nbsp;&lt;br&gt;DE MEDICIÓN" style="text;html=1;align=center;verticalAlign=middle;resizable=0;points=[];autosize=1;strokeColor=none;fillColor=none;fontStyle=1" vertex="1" parent="1">
          <mxGeometry x="340.25" y="1060" width="100" height="40" as="geometry" />
        </mxCell>
        <mxCell id="fy5Q7DqNXk6SzxezdRcU-103" style="edgeStyle=orthogonalEdgeStyle;rounded=0;orthogonalLoop=1;jettySize=auto;html=1;entryX=0;entryY=0.5;entryDx=0;entryDy=0;entryPerimeter=0;fontStyle=0;fontSize=11;curved=1;strokeWidth=4;endArrow=none;endFill=0;exitX=1;exitY=0.5;exitDx=0;exitDy=0;exitPerimeter=0;" edge="1" parent="1" source="fy5Q7DqNXk6SzxezdRcU-69" target="fy5Q7DqNXk6SzxezdRcU-101">
          <mxGeometry relative="1" as="geometry">
            <mxPoint x="291.25" y="935" as="sourcePoint" />
            <mxPoint x="411.25" y="935" as="targetPoint" />
          </mxGeometry>
        </mxCell>
        <mxCell id="fy5Q7DqNXk6SzxezdRcU-104" style="edgeStyle=orthogonalEdgeStyle;rounded=0;orthogonalLoop=1;jettySize=auto;html=1;entryX=0;entryY=0.5;entryDx=0;entryDy=0;entryPerimeter=0;fontStyle=0;fontSize=11;curved=1;strokeWidth=4;endArrow=none;endFill=0;exitX=1;exitY=0.5;exitDx=0;exitDy=0;exitPerimeter=0;" edge="1" parent="1" source="fy5Q7DqNXk6SzxezdRcU-75" target="fy5Q7DqNXk6SzxezdRcU-101">
          <mxGeometry relative="1" as="geometry">
            <mxPoint x="256.25" y="960" as="sourcePoint" />
            <mxPoint x="372.25" y="1120" as="targetPoint" />
            <Array as="points">
              <mxPoint x="296.25" y="1070" />
              <mxPoint x="296.25" y="1120" />
            </Array>
          </mxGeometry>
        </mxCell>
        <mxCell id="fy5Q7DqNXk6SzxezdRcU-105" style="edgeStyle=orthogonalEdgeStyle;rounded=0;orthogonalLoop=1;jettySize=auto;html=1;entryX=0;entryY=0.5;entryDx=0;entryDy=0;entryPerimeter=0;fontStyle=0;fontSize=11;curved=1;strokeWidth=4;endArrow=none;endFill=0;exitX=1;exitY=0.5;exitDx=0;exitDy=0;exitPerimeter=0;" edge="1" parent="1" source="fy5Q7DqNXk6SzxezdRcU-85" target="fy5Q7DqNXk6SzxezdRcU-101">
          <mxGeometry relative="1" as="geometry">
            <mxPoint x="256.25" y="1080" as="sourcePoint" />
            <mxPoint x="372.25" y="1120" as="targetPoint" />
            <Array as="points">
              <mxPoint x="296.25" y="1165" />
              <mxPoint x="296.25" y="1120" />
            </Array>
          </mxGeometry>
        </mxCell>
        <mxCell id="fy5Q7DqNXk6SzxezdRcU-106" style="edgeStyle=orthogonalEdgeStyle;rounded=0;orthogonalLoop=1;jettySize=auto;html=1;entryX=0;entryY=0.5;entryDx=0;entryDy=0;entryPerimeter=0;fontStyle=0;fontSize=11;curved=1;strokeWidth=4;endArrow=none;endFill=0;exitX=1;exitY=0.5;exitDx=0;exitDy=0;exitPerimeter=0;" edge="1" parent="1" source="fy5Q7DqNXk6SzxezdRcU-92" target="fy5Q7DqNXk6SzxezdRcU-101">
          <mxGeometry relative="1" as="geometry">
            <mxPoint x="256.25" y="1203" as="sourcePoint" />
            <mxPoint x="372.25" y="1120" as="targetPoint" />
          </mxGeometry>
        </mxCell>
        <mxCell id="fy5Q7DqNXk6SzxezdRcU-107" value="" style="verticalLabelPosition=bottom;verticalAlign=top;html=1;strokeWidth=4;shape=mxgraph.flowchart.on-page_reference;strokeColor=#005700;fillColor=#008a00;comic=0;fontColor=#ffffff;" vertex="1" parent="1">
          <mxGeometry x="367.5" y="1010" width="40" height="40" as="geometry" />
        </mxCell>
        <mxCell id="fy5Q7DqNXk6SzxezdRcU-108" value="TRANSMISIÓN&lt;br&gt;UART" style="text;html=1;align=center;verticalAlign=middle;resizable=0;points=[];autosize=1;strokeColor=none;fillColor=none;fontStyle=1" vertex="1" parent="1">
          <mxGeometry x="332.5" y="969" width="110" height="40" as="geometry" />
        </mxCell>
        <mxCell id="fy5Q7DqNXk6SzxezdRcU-109" value="" style="verticalLabelPosition=bottom;verticalAlign=top;html=1;strokeWidth=4;shape=mxgraph.flowchart.on-page_reference;strokeColor=#005700;fillColor=#008a00;comic=0;fontColor=#ffffff;" vertex="1" parent="1">
          <mxGeometry x="526.25" y="1049" width="40" height="40" as="geometry" />
        </mxCell>
        <mxCell id="fy5Q7DqNXk6SzxezdRcU-110" value="TRANSMICIÓN&lt;br&gt;DE MEMORIA" style="text;html=1;align=center;verticalAlign=middle;resizable=0;points=[];autosize=1;strokeColor=none;fillColor=none;fontStyle=1" vertex="1" parent="1">
          <mxGeometry x="491.25" y="1009" width="110" height="40" as="geometry" />
        </mxCell>
        <mxCell id="fy5Q7DqNXk6SzxezdRcU-111" style="edgeStyle=orthogonalEdgeStyle;rounded=0;orthogonalLoop=1;jettySize=auto;html=1;exitX=1;exitY=0.5;exitDx=0;exitDy=0;exitPerimeter=0;entryX=0;entryY=0.5;entryDx=0;entryDy=0;entryPerimeter=0;curved=1;endArrow=none;endFill=0;strokeWidth=4;" edge="1" parent="1" source="fy5Q7DqNXk6SzxezdRcU-101" target="fy5Q7DqNXk6SzxezdRcU-109">
          <mxGeometry relative="1" as="geometry">
            <mxPoint x="485.99" y="1226" as="sourcePoint" />
            <mxPoint x="605.99" y="1101" as="targetPoint" />
          </mxGeometry>
        </mxCell>
        <mxCell id="fy5Q7DqNXk6SzxezdRcU-112" style="edgeStyle=orthogonalEdgeStyle;rounded=0;orthogonalLoop=1;jettySize=auto;html=1;exitX=1;exitY=0.5;exitDx=0;exitDy=0;exitPerimeter=0;entryX=0;entryY=0.5;entryDx=0;entryDy=0;entryPerimeter=0;curved=1;endArrow=none;endFill=0;strokeWidth=4;" edge="1" parent="1" source="fy5Q7DqNXk6SzxezdRcU-107" target="fy5Q7DqNXk6SzxezdRcU-109">
          <mxGeometry relative="1" as="geometry">
            <mxPoint x="417.25" y="1140" as="sourcePoint" />
            <mxPoint x="536.25" y="1100" as="targetPoint" />
          </mxGeometry>
        </mxCell>
        <mxCell id="fy5Q7DqNXk6SzxezdRcU-113" value="" style="verticalLabelPosition=bottom;verticalAlign=top;html=1;strokeWidth=4;shape=mxgraph.flowchart.on-page_reference;strokeColor=#005700;fillColor=#008a00;comic=0;fontColor=#ffffff;" vertex="1" parent="1">
          <mxGeometry x="526.25" y="1144" width="40" height="40" as="geometry" />
        </mxCell>
        <mxCell id="fy5Q7DqNXk6SzxezdRcU-114" value="MÁQUINA DE&lt;br&gt;ESTADOS" style="text;html=1;align=center;verticalAlign=middle;resizable=0;points=[];autosize=1;strokeColor=none;fillColor=none;fontStyle=1" vertex="1" parent="1">
          <mxGeometry x="496.25" y="1104" width="100" height="40" as="geometry" />
        </mxCell>
        <mxCell id="fy5Q7DqNXk6SzxezdRcU-116" value="" style="verticalLabelPosition=bottom;verticalAlign=top;html=1;strokeWidth=4;shape=mxgraph.flowchart.on-page_reference;strokeColor=#005700;fillColor=#008a00;comic=0;fontColor=#ffffff;" vertex="1" parent="1">
          <mxGeometry x="686.25" y="1144" width="40" height="40" as="geometry" />
        </mxCell>
        <mxCell id="fy5Q7DqNXk6SzxezdRcU-117" value="INTEGRACIÓN&lt;br&gt;PENGUIN&lt;br&gt;LOGGER" style="text;html=1;align=center;verticalAlign=middle;resizable=0;points=[];autosize=1;strokeColor=none;fillColor=none;fontStyle=1" vertex="1" parent="1">
          <mxGeometry x="649.8800000000001" y="1085" width="110" height="60" as="geometry" />
        </mxCell>
        <mxCell id="fy5Q7DqNXk6SzxezdRcU-120" style="edgeStyle=orthogonalEdgeStyle;rounded=0;orthogonalLoop=1;jettySize=auto;html=1;exitX=1;exitY=0.5;exitDx=0;exitDy=0;exitPerimeter=0;entryX=0;entryY=0.5;entryDx=0;entryDy=0;entryPerimeter=0;curved=1;endArrow=none;endFill=0;strokeWidth=4;" edge="1" parent="1" source="fy5Q7DqNXk6SzxezdRcU-109" target="fy5Q7DqNXk6SzxezdRcU-116">
          <mxGeometry relative="1" as="geometry">
            <mxPoint x="666.25" y="1079" as="sourcePoint" />
            <mxPoint x="785.25" y="1139" as="targetPoint" />
            <Array as="points">
              <mxPoint x="606.25" y="1069" />
              <mxPoint x="606.25" y="1164" />
            </Array>
          </mxGeometry>
        </mxCell>
        <mxCell id="fy5Q7DqNXk6SzxezdRcU-121" style="edgeStyle=orthogonalEdgeStyle;rounded=0;orthogonalLoop=1;jettySize=auto;html=1;exitX=1;exitY=0.5;exitDx=0;exitDy=0;exitPerimeter=0;entryX=0;entryY=0.5;entryDx=0;entryDy=0;entryPerimeter=0;curved=1;endArrow=none;endFill=0;strokeWidth=4;" edge="1" parent="1" source="fy5Q7DqNXk6SzxezdRcU-80" target="fy5Q7DqNXk6SzxezdRcU-116">
          <mxGeometry relative="1" as="geometry">
            <mxPoint x="576.25" y="1079" as="sourcePoint" />
            <mxPoint x="696.25" y="1178" as="targetPoint" />
          </mxGeometry>
        </mxCell>
        <mxCell id="fy5Q7DqNXk6SzxezdRcU-122" style="edgeStyle=orthogonalEdgeStyle;rounded=0;orthogonalLoop=1;jettySize=auto;html=1;exitX=1;exitY=0.5;exitDx=0;exitDy=0;exitPerimeter=0;curved=1;endArrow=none;endFill=0;strokeWidth=4;entryX=0;entryY=0.5;entryDx=0;entryDy=0;entryPerimeter=0;" edge="1" parent="1" source="fy5Q7DqNXk6SzxezdRcU-113" target="fy5Q7DqNXk6SzxezdRcU-116">
          <mxGeometry relative="1" as="geometry">
            <mxPoint x="576.25" y="979" as="sourcePoint" />
            <mxPoint x="686.25" y="1169" as="targetPoint" />
          </mxGeometry>
        </mxCell>
        <mxCell id="fy5Q7DqNXk6SzxezdRcU-123" style="edgeStyle=orthogonalEdgeStyle;rounded=0;orthogonalLoop=1;jettySize=auto;html=1;exitX=1;exitY=0.5;exitDx=0;exitDy=0;exitPerimeter=0;curved=1;endArrow=none;endFill=0;strokeWidth=4;entryX=0;entryY=0.5;entryDx=0;entryDy=0;entryPerimeter=0;" edge="1" parent="1" source="fy5Q7DqNXk6SzxezdRcU-97" target="fy5Q7DqNXk6SzxezdRcU-116">
          <mxGeometry relative="1" as="geometry">
            <mxPoint x="576.25" y="1174" as="sourcePoint" />
            <mxPoint x="686.25" y="1159" as="targetPoint" />
          </mxGeometry>
        </mxCell>
        <mxCell id="fy5Q7DqNXk6SzxezdRcU-124" value="" style="verticalLabelPosition=bottom;verticalAlign=top;html=1;strokeWidth=4;shape=mxgraph.flowchart.on-page_reference;strokeColor=#001DBC;fillColor=#0050ef;comic=0;fontColor=#ffffff;" vertex="1" parent="1">
          <mxGeometry x="363.63" y="1396" width="40" height="40" as="geometry" />
        </mxCell>
        <mxCell id="fy5Q7DqNXk6SzxezdRcU-126" value="" style="verticalLabelPosition=bottom;verticalAlign=top;html=1;strokeWidth=4;shape=mxgraph.flowchart.on-page_reference;strokeColor=#001DBC;fillColor=#0050ef;comic=0;fontColor=#ffffff;" vertex="1" parent="1">
          <mxGeometry x="363.63" y="1556" width="40" height="40" as="geometry" />
        </mxCell>
        <mxCell id="fy5Q7DqNXk6SzxezdRcU-129" value="" style="verticalLabelPosition=bottom;verticalAlign=top;html=1;strokeWidth=4;shape=mxgraph.flowchart.on-page_reference;strokeColor=#001DBC;fillColor=#0050ef;comic=0;fontColor=#ffffff;" vertex="1" parent="1">
          <mxGeometry x="363.63" y="1656" width="40" height="40" as="geometry" />
        </mxCell>
        <mxCell id="fy5Q7DqNXk6SzxezdRcU-130" value="ESCRITURA DE&lt;br&gt;SALIDAS&lt;br&gt;DIGITALES" style="text;html=1;align=center;verticalAlign=middle;resizable=0;points=[];autosize=1;strokeColor=none;fillColor=none;fontStyle=1" vertex="1" parent="1">
          <mxGeometry x="328.63" y="1596" width="110" height="60" as="geometry" />
        </mxCell>
        <mxCell id="fy5Q7DqNXk6SzxezdRcU-131" value="" style="verticalLabelPosition=bottom;verticalAlign=top;html=1;strokeWidth=4;shape=mxgraph.flowchart.on-page_reference;strokeColor=#001DBC;fillColor=#0050ef;comic=0;fontColor=#ffffff;" vertex="1" parent="1">
          <mxGeometry x="523.3800000000001" y="1656" width="40" height="40" as="geometry" />
        </mxCell>
        <mxCell id="fy5Q7DqNXk6SzxezdRcU-132" value="CONTROL DE&lt;br&gt;MOSFETS" style="text;html=1;align=center;verticalAlign=middle;resizable=0;points=[];autosize=1;strokeColor=none;fillColor=none;fontStyle=1" vertex="1" parent="1">
          <mxGeometry x="493.3800000000001" y="1616" width="100" height="40" as="geometry" />
        </mxCell>
        <mxCell id="fy5Q7DqNXk6SzxezdRcU-133" value="" style="verticalLabelPosition=bottom;verticalAlign=top;html=1;strokeWidth=4;shape=mxgraph.flowchart.on-page_reference;strokeColor=#001DBC;fillColor=#0050ef;comic=0;fontColor=#ffffff;" vertex="1" parent="1">
          <mxGeometry x="363.63" y="1476" width="40" height="40" as="geometry" />
        </mxCell>
        <mxCell id="fy5Q7DqNXk6SzxezdRcU-134" value="MÁQUINA DE&lt;br&gt;ESTADOS" style="text;html=1;align=center;verticalAlign=middle;resizable=0;points=[];autosize=1;strokeColor=none;fillColor=none;fontStyle=1" vertex="1" parent="1">
          <mxGeometry x="333.38" y="1436" width="100" height="40" as="geometry" />
        </mxCell>
        <mxCell id="fy5Q7DqNXk6SzxezdRcU-135" value="" style="verticalLabelPosition=bottom;verticalAlign=top;html=1;strokeWidth=4;shape=mxgraph.flowchart.on-page_reference;strokeColor=#001DBC;fillColor=#0050ef;comic=0;fontColor=#ffffff;" vertex="1" parent="1">
          <mxGeometry x="523.6300000000001" y="1396" width="40" height="40" as="geometry" />
        </mxCell>
        <mxCell id="fy5Q7DqNXk6SzxezdRcU-136" value="TRADUCCIÓN&lt;br&gt;INSTRUCCIÓN&lt;br&gt;PC - MSP" style="text;html=1;align=center;verticalAlign=middle;resizable=0;points=[];autosize=1;strokeColor=none;fillColor=none;fontStyle=1" vertex="1" parent="1">
          <mxGeometry x="488.6300000000001" y="1340" width="110" height="60" as="geometry" />
        </mxCell>
        <mxCell id="fy5Q7DqNXk6SzxezdRcU-137" value="TRANSMISIÓN&lt;br&gt;UART (PC)" style="text;html=1;align=center;verticalAlign=middle;resizable=0;points=[];autosize=1;strokeColor=none;fillColor=none;fontStyle=1" vertex="1" parent="1">
          <mxGeometry x="328.63" y="1356" width="110" height="40" as="geometry" />
        </mxCell>
        <mxCell id="fy5Q7DqNXk6SzxezdRcU-138" value="TRANSMISIÓN&lt;br&gt;UART (MSP)" style="text;html=1;align=center;verticalAlign=middle;resizable=0;points=[];autosize=1;strokeColor=none;fillColor=none;fontStyle=1" vertex="1" parent="1">
          <mxGeometry x="328.38" y="1516" width="110" height="40" as="geometry" />
        </mxCell>
        <mxCell id="fy5Q7DqNXk6SzxezdRcU-139" value="" style="verticalLabelPosition=bottom;verticalAlign=top;html=1;strokeWidth=4;shape=mxgraph.flowchart.on-page_reference;strokeColor=#001DBC;fillColor=#0050ef;comic=0;fontColor=#ffffff;" vertex="1" parent="1">
          <mxGeometry x="523.6300000000001" y="1556" width="40" height="40" as="geometry" />
        </mxCell>
        <mxCell id="fy5Q7DqNXk6SzxezdRcU-140" value="INTERPRETACIÓN&lt;br&gt;DATOS" style="text;html=1;align=center;verticalAlign=middle;resizable=0;points=[];autosize=1;strokeColor=none;fillColor=none;fontStyle=1" vertex="1" parent="1">
          <mxGeometry x="478.6300000000001" y="1516" width="130" height="40" as="geometry" />
        </mxCell>
        <mxCell id="fy5Q7DqNXk6SzxezdRcU-143" value="" style="verticalLabelPosition=bottom;verticalAlign=top;html=1;strokeWidth=4;shape=mxgraph.flowchart.on-page_reference;strokeColor=#001DBC;fillColor=#0050ef;comic=0;fontColor=#ffffff;" vertex="1" parent="1">
          <mxGeometry x="684.5100000000002" y="1556" width="40" height="40" as="geometry" />
        </mxCell>
        <mxCell id="fy5Q7DqNXk6SzxezdRcU-144" value="INTEGRACIÓN&lt;br&gt;PENGUIN&lt;br&gt;BASE" style="text;html=1;align=center;verticalAlign=middle;resizable=0;points=[];autosize=1;strokeColor=none;fillColor=none;fontStyle=1" vertex="1" parent="1">
          <mxGeometry x="649.8800000000001" y="1500" width="110" height="60" as="geometry" />
        </mxCell>
        <mxCell id="fy5Q7DqNXk6SzxezdRcU-145" style="edgeStyle=orthogonalEdgeStyle;rounded=0;orthogonalLoop=1;jettySize=auto;html=1;entryX=0;entryY=0.5;entryDx=0;entryDy=0;entryPerimeter=0;fontStyle=0;fontSize=11;curved=1;strokeWidth=4;endArrow=none;endFill=0;exitX=1;exitY=0.5;exitDx=0;exitDy=0;exitPerimeter=0;" edge="1" parent="1" source="fy5Q7DqNXk6SzxezdRcU-124" target="fy5Q7DqNXk6SzxezdRcU-135">
          <mxGeometry relative="1" as="geometry">
            <mxPoint x="413.63" y="1029" as="sourcePoint" />
            <mxPoint x="533.6300000000001" y="1029" as="targetPoint" />
          </mxGeometry>
        </mxCell>
        <mxCell id="fy5Q7DqNXk6SzxezdRcU-146" style="edgeStyle=orthogonalEdgeStyle;rounded=0;orthogonalLoop=1;jettySize=auto;html=1;entryX=0;entryY=0.5;entryDx=0;entryDy=0;entryPerimeter=0;fontStyle=0;fontSize=11;curved=1;strokeWidth=4;endArrow=none;endFill=0;exitX=1;exitY=0.5;exitDx=0;exitDy=0;exitPerimeter=0;" edge="1" parent="1" source="fy5Q7DqNXk6SzxezdRcU-133" target="fy5Q7DqNXk6SzxezdRcU-135">
          <mxGeometry relative="1" as="geometry">
            <mxPoint x="413.63" y="1426" as="sourcePoint" />
            <mxPoint x="533.6300000000001" y="1426" as="targetPoint" />
            <Array as="points">
              <mxPoint x="443.63" y="1496" />
              <mxPoint x="443.63" y="1416" />
            </Array>
          </mxGeometry>
        </mxCell>
        <mxCell id="fy5Q7DqNXk6SzxezdRcU-147" style="edgeStyle=orthogonalEdgeStyle;rounded=0;orthogonalLoop=1;jettySize=auto;html=1;entryX=0;entryY=0.5;entryDx=0;entryDy=0;entryPerimeter=0;fontStyle=0;fontSize=11;curved=1;strokeWidth=4;endArrow=none;endFill=0;exitX=1;exitY=0.5;exitDx=0;exitDy=0;exitPerimeter=0;" edge="1" parent="1" source="fy5Q7DqNXk6SzxezdRcU-126" target="fy5Q7DqNXk6SzxezdRcU-135">
          <mxGeometry relative="1" as="geometry">
            <mxPoint x="423.63" y="1436" as="sourcePoint" />
            <mxPoint x="543.6300000000001" y="1436" as="targetPoint" />
          </mxGeometry>
        </mxCell>
        <mxCell id="fy5Q7DqNXk6SzxezdRcU-148" style="edgeStyle=orthogonalEdgeStyle;rounded=0;orthogonalLoop=1;jettySize=auto;html=1;entryX=0;entryY=0.5;entryDx=0;entryDy=0;entryPerimeter=0;fontStyle=0;fontSize=11;curved=1;strokeWidth=4;endArrow=none;endFill=0;" edge="1" parent="1" target="fy5Q7DqNXk6SzxezdRcU-139">
          <mxGeometry relative="1" as="geometry">
            <mxPoint x="403.63" y="1416" as="sourcePoint" />
            <mxPoint x="553.6300000000001" y="1446" as="targetPoint" />
            <Array as="points">
              <mxPoint x="483.6300000000001" y="1417" />
              <mxPoint x="483.6300000000001" y="1576" />
            </Array>
          </mxGeometry>
        </mxCell>
        <mxCell id="fy5Q7DqNXk6SzxezdRcU-149" style="edgeStyle=orthogonalEdgeStyle;rounded=0;orthogonalLoop=1;jettySize=auto;html=1;entryX=0;entryY=0.5;entryDx=0;entryDy=0;entryPerimeter=0;fontStyle=0;fontSize=11;curved=1;strokeWidth=4;endArrow=none;endFill=0;exitX=1;exitY=0.5;exitDx=0;exitDy=0;exitPerimeter=0;" edge="1" parent="1" source="fy5Q7DqNXk6SzxezdRcU-133" target="fy5Q7DqNXk6SzxezdRcU-139">
          <mxGeometry relative="1" as="geometry">
            <mxPoint x="443.63" y="1456" as="sourcePoint" />
            <mxPoint x="563.6300000000001" y="1456" as="targetPoint" />
            <Array as="points">
              <mxPoint x="443.63" y="1496" />
              <mxPoint x="443.63" y="1576" />
            </Array>
          </mxGeometry>
        </mxCell>
        <mxCell id="fy5Q7DqNXk6SzxezdRcU-150" style="edgeStyle=orthogonalEdgeStyle;rounded=0;orthogonalLoop=1;jettySize=auto;html=1;fontStyle=0;fontSize=11;curved=1;strokeWidth=4;endArrow=none;endFill=0;exitX=1;exitY=0.5;exitDx=0;exitDy=0;exitPerimeter=0;" edge="1" parent="1" source="fy5Q7DqNXk6SzxezdRcU-126">
          <mxGeometry relative="1" as="geometry">
            <mxPoint x="453.63" y="1466" as="sourcePoint" />
            <mxPoint x="523.6300000000001" y="1576" as="targetPoint" />
          </mxGeometry>
        </mxCell>
        <mxCell id="fy5Q7DqNXk6SzxezdRcU-151" style="edgeStyle=orthogonalEdgeStyle;rounded=0;orthogonalLoop=1;jettySize=auto;html=1;fontStyle=0;fontSize=11;curved=1;strokeWidth=4;endArrow=none;endFill=0;exitX=1;exitY=0.5;exitDx=0;exitDy=0;exitPerimeter=0;entryX=0;entryY=0.5;entryDx=0;entryDy=0;entryPerimeter=0;" edge="1" parent="1" source="fy5Q7DqNXk6SzxezdRcU-129" target="fy5Q7DqNXk6SzxezdRcU-131">
          <mxGeometry relative="1" as="geometry">
            <mxPoint x="413.38" y="1566" as="sourcePoint" />
            <mxPoint x="533.3800000000001" y="1566" as="targetPoint" />
          </mxGeometry>
        </mxCell>
        <mxCell id="fy5Q7DqNXk6SzxezdRcU-152" style="edgeStyle=orthogonalEdgeStyle;rounded=0;orthogonalLoop=1;jettySize=auto;html=1;fontStyle=0;fontSize=11;curved=1;strokeWidth=4;endArrow=none;endFill=0;exitX=1;exitY=0.5;exitDx=0;exitDy=0;exitPerimeter=0;entryX=0;entryY=0.5;entryDx=0;entryDy=0;entryPerimeter=0;" edge="1" parent="1" source="fy5Q7DqNXk6SzxezdRcU-135" target="fy5Q7DqNXk6SzxezdRcU-143">
          <mxGeometry relative="1" as="geometry">
            <mxPoint x="423.63" y="1596" as="sourcePoint" />
            <mxPoint x="543.6300000000001" y="1596" as="targetPoint" />
          </mxGeometry>
        </mxCell>
        <mxCell id="fy5Q7DqNXk6SzxezdRcU-153" style="edgeStyle=orthogonalEdgeStyle;rounded=0;orthogonalLoop=1;jettySize=auto;html=1;fontStyle=0;fontSize=11;curved=1;strokeWidth=4;endArrow=none;endFill=0;exitX=1;exitY=0.5;exitDx=0;exitDy=0;exitPerimeter=0;entryX=0;entryY=0.5;entryDx=0;entryDy=0;entryPerimeter=0;" edge="1" parent="1" source="fy5Q7DqNXk6SzxezdRcU-139" target="fy5Q7DqNXk6SzxezdRcU-143">
          <mxGeometry relative="1" as="geometry">
            <mxPoint x="433.63" y="1606" as="sourcePoint" />
            <mxPoint x="553.6300000000001" y="1606" as="targetPoint" />
          </mxGeometry>
        </mxCell>
        <mxCell id="fy5Q7DqNXk6SzxezdRcU-154" style="edgeStyle=orthogonalEdgeStyle;rounded=0;orthogonalLoop=1;jettySize=auto;html=1;fontStyle=0;fontSize=11;curved=1;strokeWidth=4;endArrow=none;endFill=0;exitX=1;exitY=0.5;exitDx=0;exitDy=0;exitPerimeter=0;entryX=0;entryY=0.5;entryDx=0;entryDy=0;entryPerimeter=0;" edge="1" parent="1" source="fy5Q7DqNXk6SzxezdRcU-131" target="fy5Q7DqNXk6SzxezdRcU-143">
          <mxGeometry relative="1" as="geometry">
            <mxPoint x="443.63" y="1616" as="sourcePoint" />
            <mxPoint x="683.6300000000001" y="1576" as="targetPoint" />
          </mxGeometry>
        </mxCell>
        <mxCell id="fy5Q7DqNXk6SzxezdRcU-155" value="" style="verticalLabelPosition=bottom;verticalAlign=top;html=1;strokeWidth=4;shape=mxgraph.flowchart.on-page_reference;plain-purple;gradientColor=none;strokeColor=#000000;fillColor=#FFFF33;comic=0;" vertex="1" parent="1">
          <mxGeometry x="845.25" y="1276" width="40" height="40" as="geometry" />
        </mxCell>
        <mxCell id="fy5Q7DqNXk6SzxezdRcU-156" value="INTEGRACIÓN&lt;br&gt;LOGGER - BASE" style="text;html=1;align=center;verticalAlign=middle;resizable=0;points=[];autosize=1;strokeColor=none;fillColor=none;fontStyle=1" vertex="1" parent="1">
          <mxGeometry x="805.25" y="1230" width="120" height="40" as="geometry" />
        </mxCell>
        <mxCell id="fy5Q7DqNXk6SzxezdRcU-157" style="edgeStyle=orthogonalEdgeStyle;rounded=0;orthogonalLoop=1;jettySize=auto;html=1;exitX=1;exitY=0.5;exitDx=0;exitDy=0;exitPerimeter=0;curved=1;endArrow=none;endFill=0;strokeWidth=4;entryX=0;entryY=0.5;entryDx=0;entryDy=0;entryPerimeter=0;" edge="1" parent="1" source="fy5Q7DqNXk6SzxezdRcU-116" target="fy5Q7DqNXk6SzxezdRcU-155">
          <mxGeometry relative="1" as="geometry">
            <mxPoint x="575.25" y="1125" as="sourcePoint" />
            <mxPoint x="695.25" y="1125" as="targetPoint" />
          </mxGeometry>
        </mxCell>
        <mxCell id="fy5Q7DqNXk6SzxezdRcU-158" style="edgeStyle=orthogonalEdgeStyle;rounded=0;orthogonalLoop=1;jettySize=auto;html=1;exitX=1;exitY=0.5;exitDx=0;exitDy=0;exitPerimeter=0;curved=1;endArrow=none;endFill=0;strokeWidth=4;entryX=0;entryY=0.5;entryDx=0;entryDy=0;entryPerimeter=0;" edge="1" parent="1" source="fy5Q7DqNXk6SzxezdRcU-143" target="fy5Q7DqNXk6SzxezdRcU-155">
          <mxGeometry relative="1" as="geometry">
            <mxPoint x="735.25" y="1125" as="sourcePoint" />
            <mxPoint x="855.25" y="1410" as="targetPoint" />
          </mxGeometry>
        </mxCell>
        <mxCell id="fy5Q7DqNXk6SzxezdRcU-159" style="edgeStyle=orthogonalEdgeStyle;rounded=0;orthogonalLoop=1;jettySize=auto;html=1;exitX=0.5;exitY=1;exitDx=0;exitDy=0;exitPerimeter=0;" edge="1" parent="1" source="fy5Q7DqNXk6SzxezdRcU-97" target="fy5Q7DqNXk6SzxezdRcU-97">
          <mxGeometry relative="1" as="geometry" />
        </mxCell>
        <mxCell id="fy5Q7DqNXk6SzxezdRcU-160" value="&lt;font style=&quot;font-size: 20px;&quot;&gt;1a&lt;/font&gt;" style="text;html=1;align=center;verticalAlign=middle;resizable=0;points=[];autosize=1;strokeColor=none;fillColor=none;fontStyle=1;fontColor=#FFFFFF;" vertex="1" parent="1">
          <mxGeometry x="40.25" y="955" width="50" height="40" as="geometry" />
        </mxCell>
        <mxCell id="fy5Q7DqNXk6SzxezdRcU-161" value="&lt;font style=&quot;font-size: 20px;&quot;&gt;1b&lt;/font&gt;" style="text;html=1;align=center;verticalAlign=middle;resizable=0;points=[];autosize=1;strokeColor=none;fillColor=none;fontStyle=1;fontColor=#FFFFFF;" vertex="1" parent="1">
          <mxGeometry x="40.25" y="1050" width="50" height="40" as="geometry" />
        </mxCell>
        <mxCell id="fy5Q7DqNXk6SzxezdRcU-162" value="&lt;font style=&quot;font-size: 20px;&quot;&gt;1c&lt;/font&gt;" style="text;html=1;align=center;verticalAlign=middle;resizable=0;points=[];autosize=1;strokeColor=none;fillColor=none;fontStyle=1;fontColor=#FFFFFF;" vertex="1" parent="1">
          <mxGeometry x="40.25" y="1144" width="50" height="40" as="geometry" />
        </mxCell>
        <mxCell id="fy5Q7DqNXk6SzxezdRcU-163" value="&lt;font style=&quot;font-size: 20px;&quot;&gt;1d&lt;/font&gt;" style="text;html=1;align=center;verticalAlign=middle;resizable=0;points=[];autosize=1;strokeColor=none;fillColor=none;fontStyle=1;fontColor=#FFFFFF;" vertex="1" parent="1">
          <mxGeometry x="37" y="1229" width="50" height="40" as="geometry" />
        </mxCell>
        <mxCell id="fy5Q7DqNXk6SzxezdRcU-164" value="&lt;font style=&quot;font-size: 20px;&quot;&gt;2a&lt;/font&gt;" style="text;html=1;align=center;verticalAlign=middle;resizable=0;points=[];autosize=1;strokeColor=none;fillColor=none;fontStyle=1;fontColor=#FFFFFF;" vertex="1" parent="1">
          <mxGeometry x="200.25" y="955" width="50" height="40" as="geometry" />
        </mxCell>
        <mxCell id="fy5Q7DqNXk6SzxezdRcU-165" value="&lt;font style=&quot;font-size: 20px;&quot;&gt;2b&lt;/font&gt;" style="text;html=1;align=center;verticalAlign=middle;resizable=0;points=[];autosize=1;strokeColor=none;fillColor=none;fontStyle=1;fontColor=#FFFFFF;" vertex="1" parent="1">
          <mxGeometry x="200.25" y="1049" width="50" height="40" as="geometry" />
        </mxCell>
        <mxCell id="fy5Q7DqNXk6SzxezdRcU-166" value="&lt;font style=&quot;font-size: 20px;&quot;&gt;2c&lt;/font&gt;" style="text;html=1;align=center;verticalAlign=middle;resizable=0;points=[];autosize=1;strokeColor=none;fillColor=none;fontStyle=1;fontColor=#FFFFFF;" vertex="1" parent="1">
          <mxGeometry x="200.25" y="1144" width="50" height="40" as="geometry" />
        </mxCell>
        <mxCell id="fy5Q7DqNXk6SzxezdRcU-167" value="&lt;font style=&quot;font-size: 20px;&quot;&gt;2d&lt;/font&gt;" style="text;html=1;align=center;verticalAlign=middle;resizable=0;points=[];autosize=1;strokeColor=none;fillColor=none;fontStyle=1;fontColor=#FFFFFF;" vertex="1" parent="1">
          <mxGeometry x="199" y="1229" width="50" height="40" as="geometry" />
        </mxCell>
        <mxCell id="fy5Q7DqNXk6SzxezdRcU-168" value="&lt;font style=&quot;font-size: 20px;&quot;&gt;3a&lt;/font&gt;" style="text;html=1;align=center;verticalAlign=middle;resizable=0;points=[];autosize=1;strokeColor=none;fillColor=none;fontStyle=1;fontColor=#FFFFFF;" vertex="1" parent="1">
          <mxGeometry x="360.13" y="1009" width="50" height="40" as="geometry" />
        </mxCell>
        <mxCell id="fy5Q7DqNXk6SzxezdRcU-169" value="&lt;font style=&quot;font-size: 20px;&quot;&gt;3b&lt;/font&gt;" style="text;html=1;align=center;verticalAlign=middle;resizable=0;points=[];autosize=1;strokeColor=none;fillColor=none;fontStyle=1;fontColor=#FFFFFF;" vertex="1" parent="1">
          <mxGeometry x="361.5" y="1100" width="50" height="40" as="geometry" />
        </mxCell>
        <mxCell id="fy5Q7DqNXk6SzxezdRcU-170" value="&lt;font style=&quot;font-size: 20px;&quot;&gt;3c&lt;/font&gt;" style="text;html=1;align=center;verticalAlign=middle;resizable=0;points=[];autosize=1;strokeColor=none;fillColor=none;fontStyle=1;fontColor=#FFFFFF;" vertex="1" parent="1">
          <mxGeometry x="361.5" y="1229" width="50" height="40" as="geometry" />
        </mxCell>
        <mxCell id="fy5Q7DqNXk6SzxezdRcU-171" value="&lt;font style=&quot;font-size: 20px;&quot;&gt;4a&lt;/font&gt;" style="text;html=1;align=center;verticalAlign=middle;resizable=0;points=[];autosize=1;strokeColor=none;fillColor=none;fontStyle=1;fontColor=#FFFFFF;" vertex="1" parent="1">
          <mxGeometry x="518.75" y="948" width="50" height="40" as="geometry" />
        </mxCell>
        <mxCell id="fy5Q7DqNXk6SzxezdRcU-172" value="&lt;font style=&quot;font-size: 20px;&quot;&gt;4b&lt;/font&gt;" style="text;html=1;align=center;verticalAlign=middle;resizable=0;points=[];autosize=1;strokeColor=none;fillColor=none;fontStyle=1;fontColor=#FFFFFF;" vertex="1" parent="1">
          <mxGeometry x="518.75" y="1049" width="50" height="40" as="geometry" />
        </mxCell>
        <mxCell id="fy5Q7DqNXk6SzxezdRcU-173" value="&lt;font style=&quot;font-size: 20px;&quot;&gt;4c&lt;/font&gt;" style="text;html=1;align=center;verticalAlign=middle;resizable=0;points=[];autosize=1;strokeColor=none;fillColor=none;fontStyle=1;fontColor=#FFFFFF;" vertex="1" parent="1">
          <mxGeometry x="520.25" y="1144" width="50" height="40" as="geometry" />
        </mxCell>
        <mxCell id="fy5Q7DqNXk6SzxezdRcU-174" value="&lt;font style=&quot;font-size: 20px;&quot;&gt;4d&lt;/font&gt;" style="text;html=1;align=center;verticalAlign=middle;resizable=0;points=[];autosize=1;strokeColor=none;fillColor=none;fontStyle=1;fontColor=#FFFFFF;" vertex="1" parent="1">
          <mxGeometry x="517.75" y="1229" width="50" height="40" as="geometry" />
        </mxCell>
        <mxCell id="fy5Q7DqNXk6SzxezdRcU-176" value="&lt;font style=&quot;font-size: 20px;&quot;&gt;5a&lt;/font&gt;" style="text;html=1;align=center;verticalAlign=middle;resizable=0;points=[];autosize=1;strokeColor=none;fillColor=none;fontStyle=1;fontColor=#FFFFFF;" vertex="1" parent="1">
          <mxGeometry x="679.25" y="1144" width="50" height="40" as="geometry" />
        </mxCell>
        <mxCell id="fy5Q7DqNXk6SzxezdRcU-177" value="&lt;font style=&quot;font-size: 20px;&quot;&gt;S&lt;/font&gt;" style="text;html=1;align=center;verticalAlign=middle;resizable=0;points=[];autosize=1;strokeColor=none;fillColor=none;fontStyle=1" vertex="1" parent="1">
          <mxGeometry x="845.25" y="1276" width="40" height="40" as="geometry" />
        </mxCell>
        <mxCell id="fy5Q7DqNXk6SzxezdRcU-178" value="&lt;font style=&quot;font-size: 20px;&quot;&gt;3d&lt;/font&gt;" style="text;html=1;align=center;verticalAlign=middle;resizable=0;points=[];autosize=1;strokeColor=none;fillColor=none;fontStyle=1;fontColor=#FFFFFF;" vertex="1" parent="1">
          <mxGeometry x="359.13" y="1396" width="50" height="40" as="geometry" />
        </mxCell>
        <mxCell id="fy5Q7DqNXk6SzxezdRcU-179" value="&lt;font style=&quot;font-size: 20px;&quot;&gt;3e&lt;/font&gt;" style="text;html=1;align=center;verticalAlign=middle;resizable=0;points=[];autosize=1;strokeColor=none;fillColor=none;fontStyle=1;fontColor=#FFFFFF;" vertex="1" parent="1">
          <mxGeometry x="359.63" y="1476" width="50" height="40" as="geometry" />
        </mxCell>
        <mxCell id="fy5Q7DqNXk6SzxezdRcU-180" value="&lt;font style=&quot;font-size: 20px;&quot;&gt;3f&lt;/font&gt;" style="text;html=1;align=center;verticalAlign=middle;resizable=0;points=[];autosize=1;strokeColor=none;fillColor=none;fontStyle=1;fontColor=#FFFFFF;" vertex="1" parent="1">
          <mxGeometry x="364.63" y="1556" width="40" height="40" as="geometry" />
        </mxCell>
        <mxCell id="fy5Q7DqNXk6SzxezdRcU-181" value="&lt;font style=&quot;font-size: 20px;&quot;&gt;3g&lt;/font&gt;" style="text;html=1;align=center;verticalAlign=middle;resizable=0;points=[];autosize=1;strokeColor=none;fillColor=none;fontStyle=1;fontColor=#FFFFFF;" vertex="1" parent="1">
          <mxGeometry x="359.38" y="1656" width="50" height="40" as="geometry" />
        </mxCell>
        <mxCell id="fy5Q7DqNXk6SzxezdRcU-182" value="&lt;font style=&quot;font-size: 20px;&quot;&gt;4e&lt;/font&gt;" style="text;html=1;align=center;verticalAlign=middle;resizable=0;points=[];autosize=1;strokeColor=none;fillColor=none;fontStyle=1;fontColor=#FFFFFF;" vertex="1" parent="1">
          <mxGeometry x="519.3800000000001" y="1396" width="50" height="40" as="geometry" />
        </mxCell>
        <mxCell id="fy5Q7DqNXk6SzxezdRcU-183" value="&lt;span style=&quot;font-size: 20px;&quot;&gt;4f&lt;/span&gt;" style="text;html=1;align=center;verticalAlign=middle;resizable=0;points=[];autosize=1;strokeColor=none;fillColor=none;fontStyle=1;fontColor=#FFFFFF;" vertex="1" parent="1">
          <mxGeometry x="522.3800000000001" y="1556" width="40" height="40" as="geometry" />
        </mxCell>
        <mxCell id="fy5Q7DqNXk6SzxezdRcU-184" value="&lt;font style=&quot;font-size: 20px;&quot;&gt;4g&lt;/font&gt;" style="text;html=1;align=center;verticalAlign=middle;resizable=0;points=[];autosize=1;strokeColor=none;fillColor=none;fontStyle=1;fontColor=#FFFFFF;" vertex="1" parent="1">
          <mxGeometry x="517.3800000000001" y="1656" width="50" height="40" as="geometry" />
        </mxCell>
        <mxCell id="fy5Q7DqNXk6SzxezdRcU-185" value="&lt;font style=&quot;font-size: 20px;&quot;&gt;5b&lt;/font&gt;" style="text;html=1;align=center;verticalAlign=middle;resizable=0;points=[];autosize=1;strokeColor=none;fillColor=none;fontStyle=1;fontColor=#FFFFFF;" vertex="1" parent="1">
          <mxGeometry x="680.5100000000002" y="1556" width="50" height="40" as="geometry" />
        </mxCell>
        <mxCell id="fy5Q7DqNXk6SzxezdRcU-190" value="PENGUIN LOGGER" style="text;html=1;align=center;verticalAlign=middle;resizable=0;points=[];autosize=1;strokeColor=none;fillColor=none;fontStyle=1;fontSize=30;" vertex="1" parent="1">
          <mxGeometry y="850" width="300" height="50" as="geometry" />
        </mxCell>
        <mxCell id="fy5Q7DqNXk6SzxezdRcU-191" value="PENGUIN BASE" style="text;html=1;align=center;verticalAlign=middle;resizable=0;points=[];autosize=1;strokeColor=none;fillColor=none;fontStyle=1;fontSize=30;" vertex="1" parent="1">
          <mxGeometry x="0.25" y="1340" width="250" height="50" as="geometry" />
        </mxCell>
      </root>
    </mxGraphModel>
  </diagram>
</mxfile>
